<svg width="56" height="71" viewBox="0 0 56 71" fill="none" xmlns="http://www.w3.org/2000/svg">
<path d="M3 17.4444H53M20.8571 28.2778V57.1667M35.1429 28.2778V57.1667M20.8571 3H35.1429C36.0901 3 36.9985 3.38046 37.6682 4.05767C38.338 4.73488 38.7143 5.65338 38.7143 6.61111V17.4444H17.2857V6.61111C17.2857 5.65338 17.662 4.73488 18.3318 4.05767C19.0015 3.38046 19.9099 3 20.8571 3ZM6.57143 17.4444H49.4286V64.3889C49.4286 65.3466 49.0523 66.2651 48.3825 66.9423C47.7128 67.6195 46.8043 68 45.8571 68H10.1429C9.19566 68 8.28725 67.6195 7.61748 66.9423C6.9477 66.2651 6.57143 65.3466 6.57143 64.3889V17.4444Z" stroke="#001C93" stroke-width="5" stroke-linecap="round" stroke-linejoin="round"/>
</svg>
