<svg width="53" height="66" viewBox="0 0 53 66" fill="none" xmlns="http://www.w3.org/2000/svg">
<path d="M3 16.3333H49.6667M19.6667 26.3333V53M33 26.3333V53M19.6667 3H33C33.8841 3 34.7319 3.35119 35.357 3.97631C35.9821 4.60143 36.3333 5.44928 36.3333 6.33333V16.3333H16.3333V6.33333C16.3333 5.44928 16.6845 4.60143 17.3096 3.97631C17.9348 3.35119 18.7826 3 19.6667 3ZM6.33333 16.3333H46.3333V59.6667C46.3333 60.5507 45.9821 61.3986 45.357 62.0237C44.7319 62.6488 43.8841 63 43 63H9.66667C8.78261 63 7.93477 62.6488 7.30964 62.0237C6.68452 61.3986 6.33333 60.5507 6.33333 59.6667V16.3333Z" stroke="#1A1A1A" stroke-width="5" stroke-linecap="round" stroke-linejoin="round"/>
</svg>
