<svg width="66" height="66" viewBox="0 0 66 66" fill="none" xmlns="http://www.w3.org/2000/svg">
<path d="M45.3899 9.91634L56.0849 20.6113M18 18.0013H6.74999C5.75543 18.0013 4.80161 18.3964 4.09835 19.0997C3.39509 19.8029 3 20.7568 3 21.7513V59.2512C3 60.2458 3.39509 61.1996 4.09835 61.9029C4.80161 62.6062 5.75543 63.0012 6.74999 63.0012H47.9999C48.9945 63.0012 49.9483 62.6062 50.6516 61.9029C51.3548 61.1996 51.7499 60.2458 51.7499 59.2512V42.3763M60.7836 5.21385C61.4863 5.91624 62.0437 6.75019 62.424 7.66805C62.8043 8.5859 63 9.56969 63 10.5632C63 11.5567 62.8043 12.5405 62.424 13.4584C62.0437 14.3762 61.4863 15.2102 60.7836 15.9126L35.1187 41.5775L21.75 44.2513L24.4237 30.8826L50.0887 5.2176C50.7905 4.51461 51.624 3.9569 52.5416 3.57638C53.4592 3.19586 54.4428 3 55.4361 3C56.4295 3 57.4131 3.19586 58.3307 3.57638C59.2483 3.9569 60.0818 4.51461 60.7836 5.2176V5.21385Z" stroke="#1A1A1A" stroke-width="6" stroke-linecap="round" stroke-linejoin="round"/>
</svg>
