<svg width="50" height="50" viewBox="0 0 50 50" fill="none" xmlns="http://www.w3.org/2000/svg">
<path d="M29.8 10.0917L35.7417 16.0334M14.5833 14.5834H8.33333C7.7808 14.5834 7.25089 14.8028 6.86019 15.1935C6.46949 15.5842 6.25 16.1142 6.25 16.6667V37.5C6.25 38.0526 6.46949 38.5825 6.86019 38.9732C7.25089 39.3639 7.7808 39.5834 8.33333 39.5834H31.25C31.8025 39.5834 32.3324 39.3639 32.7231 38.9732C33.1138 38.5825 33.3333 38.0526 33.3333 37.5V28.125M38.3521 7.47919C38.7424 7.86941 39.0521 8.33271 39.2634 8.84263C39.4747 9.35255 39.5834 9.8991 39.5834 10.4511C39.5834 11.003 39.4747 11.5496 39.2634 12.0595C39.0521 12.5694 38.7424 13.0327 38.3521 13.4229L24.0937 27.6813L16.6667 29.1667L18.1521 21.7396L32.4104 7.48127C32.8003 7.09072 33.2634 6.78088 33.7732 6.56948C34.2829 6.35808 34.8294 6.24927 35.3812 6.24927C35.9331 6.24927 36.4796 6.35808 36.9893 6.56948C37.4991 6.78088 37.9622 7.09072 38.3521 7.48127V7.47919Z" stroke="#1A1A1A" stroke-width="3" stroke-linecap="round" stroke-linejoin="round"/>
</svg>
