<svg width="49" height="48" viewBox="0 0 49 48" fill="none" xmlns="http://www.w3.org/2000/svg">
<g clip-path="url(#clip0_433_482)">
<path d="M7.83163 11.1429L25.8544 24.9394C26.2525 25.2438 26.7395 25.4087 27.2404 25.4087C27.7413 25.4087 28.2284 25.2438 28.6264 24.9394L46.6492 11.1429M8.97333 42H45.5075C46.1131 42 46.6939 41.7592 47.1221 41.3305C47.5503 40.9019 47.7909 40.3205 47.7909 39.7143V12.2857C47.7909 11.6795 47.5503 11.0981 47.1221 10.6695C46.6939 10.2408 46.1131 10 45.5075 10H8.97333C8.36774 10 7.78695 10.2408 7.35873 10.6695C6.93051 11.0981 6.68994 11.6795 6.68994 12.2857V39.7143C6.68994 40.3205 6.93051 40.9019 7.35873 41.3305C7.78695 41.7592 8.36774 42 8.97333 42Z" stroke="white" stroke-width="4" stroke-linecap="round"/>
</g>
<defs>
<clipPath id="clip0_433_482">
<rect width="48.1182" height="48" fill="white" transform="translate(0.675293)"/>
</clipPath>
</defs>
</svg>
