<svg width="49" height="48" viewBox="0 0 49 48" fill="none" xmlns="http://www.w3.org/2000/svg">
<path fill-rule="evenodd" clip-rule="evenodd" d="M6.22412 16C6.22412 13.3478 7.28028 10.8043 9.16027 8.92893C11.0402 7.05357 13.5901 6 16.2487 6H32.2881C34.9468 6 37.4966 7.05357 39.3766 8.92893C41.2566 10.8043 42.3128 13.3478 42.3128 16V32C42.3128 34.6522 41.2566 37.1957 39.3766 39.0711C37.4966 40.9464 34.9468 42 32.2881 42H16.2487C13.5901 42 11.0402 40.9464 9.16027 39.0711C7.28028 37.1957 6.22412 34.6522 6.22412 32V16ZM16.2487 10C14.6535 10 13.1236 10.6321 11.9957 11.7574C10.8677 12.8826 10.234 14.4087 10.234 16V32C10.234 33.5913 10.8677 35.1174 11.9957 36.2426C13.1236 37.3679 14.6535 38 16.2487 38H32.2881C33.8834 38 35.4132 37.3679 36.5412 36.2426C37.6692 35.1174 38.3029 33.5913 38.3029 32V16C38.3029 14.4087 37.6692 12.8826 36.5412 11.7574C35.4132 10.6321 33.8834 10 32.2881 10H16.2487ZM31.4802 14.428C31.4802 13.8976 31.6914 13.3889 32.0674 13.0138C32.4434 12.6387 32.9534 12.428 33.4851 12.428H33.5051C34.0369 12.428 34.5468 12.6387 34.9228 13.0138C35.2988 13.3889 35.5101 13.8976 35.5101 14.428C35.5101 14.9584 35.2988 15.4671 34.9228 15.8422C34.5468 16.2173 34.0369 16.428 33.5051 16.428H33.4851C32.9534 16.428 32.4434 16.2173 32.0674 15.8422C31.6914 15.4671 31.4802 14.9584 31.4802 14.428ZM24.2684 18C22.6732 18 21.1433 18.6321 20.0154 19.7574C18.8874 20.8826 18.2537 22.4087 18.2537 24C18.2537 25.5913 18.8874 27.1174 20.0154 28.2426C21.1433 29.3679 22.6732 30 24.2684 30C25.8637 30 27.3935 29.3679 28.5215 28.2426C29.6495 27.1174 30.2832 25.5913 30.2832 24C30.2832 22.4087 29.6495 20.8826 28.5215 19.7574C27.3935 18.6321 25.8637 18 24.2684 18ZM14.2438 24C14.2438 21.3478 15.3 18.8043 17.18 16.9289C19.0599 15.0536 21.6098 14 24.2684 14C26.9271 14 29.4769 15.0536 31.3569 16.9289C33.2369 18.8043 34.2931 21.3478 34.2931 24C34.2931 26.6522 33.2369 29.1957 31.3569 31.0711C29.4769 32.9464 26.9271 34 24.2684 34C21.6098 34 19.0599 32.9464 17.18 31.0711C15.3 29.1957 14.2438 26.6522 14.2438 24Z" fill="white"/>
</svg>
