<svg width="53" height="64" viewBox="0 0 53 64" fill="none" xmlns="http://www.w3.org/2000/svg">
<path d="M43.8004 38.7141C43.5179 38.7141 43.2326 38.6302 42.9842 38.456C42.3409 38.0037 42.1858 37.117 42.6377 36.4749L49.8375 26.2356L42.6377 15.9963C42.1858 15.3534 42.3409 14.4667 42.9842 14.0151C43.6275 13.5621 44.5148 13.7186 44.9667 14.3607L52.7414 25.4178C53.0858 25.9085 53.0858 26.5627 52.7414 27.0533L44.9667 38.1097C44.6899 38.5037 44.2487 38.7141 43.8004 38.7141Z" fill="#001C93"/>
<path d="M35.5321 21.3988C36.3177 21.3988 36.9553 20.7616 36.9553 19.9765V1.42222C36.9553 0.637156 36.3177 0 35.5321 0H1.42316C1.41391 0 1.40608 0.00213333 1.39683 0.00284444C1.37051 0.00284444 1.34418 0.00853333 1.31785 0.0106667C1.23104 0.0170667 1.14707 0.0298667 1.06595 0.0512C1.03322 0.0590222 1.00262 0.0696889 0.971308 0.0803556C0.8909 0.107378 0.814049 0.1408 0.740756 0.181333C0.722967 0.191289 0.703042 0.194844 0.685964 0.205511C0.677425 0.210489 0.671733 0.218311 0.663906 0.223289C0.5714 0.282311 0.484587 0.349156 0.407736 0.427378C0.394216 0.440889 0.384254 0.457244 0.371446 0.470756C0.310961 0.538311 0.256881 0.610844 0.209205 0.689067C0.192127 0.717511 0.177184 0.746667 0.162241 0.775822C0.125238 0.847644 0.0953519 0.922311 0.0704465 1.00053C0.061196 1.0304 0.0505225 1.05884 0.0434067 1.08942C0.0170782 1.1968 0 1.30702 0 1.42222V51.0485C0 51.1694 0.0199245 51.2853 0.0483878 51.397C0.0562151 51.4276 0.0661773 51.456 0.0761395 51.4852C0.104603 51.5726 0.140893 51.6551 0.184299 51.734C0.197819 51.7575 0.208493 51.7824 0.222725 51.8052C0.283921 51.9012 0.354367 51.99 0.436199 52.069C0.451854 52.0839 0.469644 52.0953 0.48601 52.1102C0.558592 52.1742 0.638288 52.2304 0.722966 52.2788C0.73791 52.2873 0.749295 52.3001 0.764239 52.3086L22.8346 63.8379C23.041 63.9467 23.2673 64 23.4936 64C23.749 64 24.0045 63.931 24.2308 63.7945C24.6563 63.5371 24.9167 63.0748 24.9167 62.5778V52.4708H35.5321C36.3177 52.4708 36.9553 51.8336 36.9553 51.0485V32C36.9553 31.2149 36.3177 30.5778 35.5321 30.5778C34.7465 30.5778 34.1089 31.2149 34.1089 32V49.6263H24.9167V12.9515C24.9167 12.4217 24.6221 11.936 24.1525 11.6914L7.21757 2.84444H34.1089V19.9765C34.1089 20.7616 34.7465 21.3988 35.5321 21.3988Z" fill="#001C93"/>
<path d="M51.5773 27.6582H28.305C27.5194 27.6582 26.8818 27.021 26.8818 26.2359C26.8818 25.4509 27.5194 24.8137 28.305 24.8137H51.5773C52.3628 24.8137 53.0004 25.4509 53.0004 26.2359C53.0004 27.021 52.3636 27.6582 51.5773 27.6582Z" fill="#001C93"/>
</svg>
