<svg width="49" height="48" viewBox="0 0 49 48" fill="none" xmlns="http://www.w3.org/2000/svg">
<path d="M42.0673 31.5105L38.7286 28.1827C37.8443 27.3012 36.6454 26.806 35.3953 26.806C34.1452 26.806 32.9462 27.3012 32.062 28.1827L30.394 29.8466C29.9563 30.2834 29.4367 30.6299 28.8648 30.8663C28.2928 31.1027 27.6798 31.2243 27.0607 31.2243C26.4416 31.2243 25.8286 31.1027 25.2567 30.8663C24.6847 30.6299 24.1651 30.2834 23.7274 29.8466L18.7261 24.8522C17.8422 23.9691 17.3456 22.7723 17.3456 21.5243C17.3456 20.2764 17.8422 19.0795 18.7261 18.1965L20.3914 16.5326C21.2754 15.6496 21.7719 14.4527 21.7719 13.2048C21.7719 11.9569 21.2754 10.76 20.3914 9.87701L17.0609 6.5492C16.6522 6.06402 16.1421 5.67393 15.5662 5.40631C14.9904 5.13868 14.3628 5 13.7276 5C13.0923 5 12.4647 5.13868 11.8889 5.40631C11.3131 5.67393 10.8029 6.06402 10.3943 6.5492C1.62435 15.2352 5.76306 25.2674 14.5276 34.0104C23.2893 42.7534 33.3409 46.8901 42.0646 38.177C42.5534 37.7691 42.9465 37.2592 43.2162 36.6833C43.486 36.1074 43.6258 35.4794 43.6258 34.8437C43.6258 34.208 43.486 33.5801 43.2162 33.0042C42.9465 32.4282 42.5561 31.9184 42.0673 31.5105Z" stroke="white" stroke-width="4" stroke-linecap="round" stroke-linejoin="round"/>
</svg>
