<svg width="50" height="50" viewBox="0 0 50 50" fill="none" xmlns="http://www.w3.org/2000/svg">
<path d="M10.417 25V16.4875C10.4171 15.935 10.6367 15.4052 11.0274 15.0146L19.1816 6.86042C19.5722 6.46969 20.102 6.25012 20.6545 6.25H37.5003C38.0529 6.25 38.5828 6.46949 38.9735 6.86019C39.3642 7.25089 39.5837 7.7808 39.5837 8.33333V41.6667C39.5837 42.2192 39.3642 42.7491 38.9735 43.1398C38.5828 43.5305 38.0529 43.75 37.5003 43.75H12.5003C11.9478 43.75 11.4179 43.5305 11.0272 43.1398C10.6365 42.7491 10.417 42.2192 10.417 41.6667V33.3333M20.8337 6.25V14.5833C20.8337 15.1359 20.6142 15.6658 20.2235 16.0565C19.8328 16.4472 19.3029 16.6667 18.7503 16.6667H10.417M10.417 29.1667H29.167M29.167 29.1667L25.0003 25M29.167 29.1667L25.0003 33.3333" stroke="#001C93" stroke-width="4" stroke-linecap="round" stroke-linejoin="round"/>
</svg>
