<svg width="24" height="24" viewBox="0 0 24 24" fill="none" xmlns="http://www.w3.org/2000/svg">
<path d="M15.9966 18H7.99658L10.4966 12L12.4966 16L13.9966 14L15.9966 18ZM14.9966 9.5C14.9966 9.63261 14.9439 9.75979 14.8501 9.85355C14.7564 9.94732 14.6292 10 14.4966 10C14.364 10 14.2368 9.94732 14.143 9.85355C14.0493 9.75979 13.9966 9.63261 13.9966 9.5C13.9966 9.36739 14.0493 9.24021 14.143 9.14645C14.2368 9.05268 14.364 9 14.4966 9C14.6292 9 14.7564 9.05268 14.8501 9.14645C14.9439 9.24021 14.9966 9.36739 14.9966 9.5Z" fill="#011C93"/>
<path d="M9.99658 3V7C9.99658 7.26522 9.89122 7.51957 9.70369 7.70711C9.51615 7.89464 9.2618 8 8.99658 8H4.99658M18.9966 4V20C18.9966 20.2652 18.8912 20.5196 18.7037 20.7071C18.5162 20.8946 18.2618 21 17.9966 21H5.99658C5.73137 21 5.47701 20.8946 5.28948 20.7071C5.10194 20.5196 4.99658 20.2652 4.99658 20V7.914C4.99664 7.64881 5.10203 7.39449 5.28958 7.207L9.20358 3.293C9.39107 3.10545 9.64539 3.00006 9.91058 3H17.9966C18.2618 3 18.5162 3.10536 18.7037 3.29289C18.8912 3.48043 18.9966 3.73478 18.9966 4ZM7.99658 18H15.9966L13.9966 14L12.4966 16L10.4966 12L7.99658 18ZM14.9966 9.5C14.9966 9.63261 14.9439 9.75979 14.8501 9.85355C14.7564 9.94732 14.6292 10 14.4966 10C14.364 10 14.2368 9.94732 14.143 9.85355C14.0493 9.75979 13.9966 9.63261 13.9966 9.5C13.9966 9.36739 14.0493 9.24021 14.143 9.14645C14.2368 9.05268 14.364 9 14.4966 9C14.6292 9 14.7564 9.05268 14.8501 9.14645C14.9439 9.24021 14.9966 9.36739 14.9966 9.5Z" stroke="#011C93" stroke-width="2" stroke-linecap="round" stroke-linejoin="round"/>
</svg>
