<svg width="49" height="48" viewBox="0 0 49 48" fill="none" xmlns="http://www.w3.org/2000/svg">
<path fill-rule="evenodd" clip-rule="evenodd" d="M24.4238 8C21.5962 7.99937 18.8186 8.74442 16.3727 10.1596C13.9267 11.5749 11.8993 13.61 10.4959 16.0587C9.09244 18.5074 8.36288 21.2827 8.38114 24.1033C8.39939 26.9239 9.16481 29.6896 10.5998 32.12L11.7406 33.556L10.3432 38.274L14.9946 36.978L15.7545 37.464C17.8515 38.807 20.2334 39.6441 22.7112 39.909C25.1891 40.1738 27.6947 39.859 30.0293 38.9896C32.364 38.1202 34.4634 36.7201 36.1612 34.9004C37.8589 33.0807 39.1082 30.8914 39.8101 28.5061C40.5119 26.1208 40.6469 23.6052 40.2044 21.1588C39.7619 18.7125 38.754 16.4026 37.2607 14.4124C35.7675 12.4223 33.8299 10.8066 31.6016 9.69351C29.3734 8.58044 26.9158 8.0006 24.4238 8ZM4.37453 24C4.37453 12.954 13.3506 4 24.4238 4C35.497 4 44.473 12.954 44.473 24C44.473 35.046 35.497 44 24.4238 44C20.8917 44.005 17.4215 43.0754 14.3671 41.306L4.44671 44.07L7.30573 34.412L7.2937 34.398L7.22754 34.288C5.35582 31.1815 4.36938 27.6244 4.37453 24Z" fill="white"/>
<path d="M33.9173 26.984C33.8411 26.948 30.9159 25.512 30.3966 25.324C30.1799 25.2349 29.9492 25.1842 29.715 25.174C29.322 25.174 28.9892 25.37 28.7325 25.756C28.4398 26.19 27.5557 27.22 27.283 27.528C27.2469 27.568 27.1988 27.618 27.1687 27.618C27.1426 27.618 26.6895 27.432 26.5532 27.372C23.4175 26.012 21.0376 22.746 20.7108 22.194C20.6647 22.114 20.6627 22.08 20.6627 22.08C20.6727 22.038 20.779 21.932 20.8331 21.878C20.9935 21.72 21.166 21.514 21.3324 21.312L21.5669 21.032C21.8095 20.752 21.9178 20.532 22.0421 20.282L22.1083 20.15C22.2075 19.9498 22.2557 19.7282 22.2487 19.505C22.2417 19.2817 22.1797 19.0637 22.0682 18.87C22 18.732 20.765 15.76 20.6347 15.448C20.3179 14.694 19.9009 14.344 19.3214 14.344C19.2673 14.344 19.3214 14.344 19.0969 14.354C18.8222 14.364 17.3265 14.562 16.6649 14.976C15.9632 15.416 14.7803 16.824 14.7803 19.296C14.7803 21.52 16.1937 23.62 16.8012 24.418L16.8834 24.538C19.2112 27.928 22.1123 30.44 25.0515 31.612C27.8825 32.74 29.2238 32.872 29.9856 32.872C30.3064 32.872 30.563 32.846 30.7876 32.824L30.932 32.81C31.9104 32.724 34.0596 31.612 34.5488 30.258C34.9338 29.19 35.036 28.024 34.7794 27.6C34.603 27.312 34.3002 27.168 33.9173 26.984Z" fill="white"/>
</svg>
